<svg xmlns="http://www.w3.org/2000/svg" xmlns:xlink="http://www.w3.org/1999/xlink" xml:space="preserve" viewBox="0 0 3710 3710"><path d="M0 0h3710v3710H0z" style="fill:#F1F5F9"/><linearGradient id="a" x1="3597.053" x2="1141.171" y1="4024.707" y2="974.656" gradientUnits="userSpaceOnUse"><stop offset="0" style="stop-color:#dae3fe"/><stop offset="1" style="stop-color:#e9effd"/></linearGradient><path d="M2926.628 2818.174c-56.851 59.409-110.643 97.721-153.144 127.991-499.582 355.811-1090.719 252.094-1216.353 226.765-185.521-37.402-544.13-109.7-803.397-412.344-392.25-457.875-375.5-1211.142-26.915-1655.43 49.135-62.625 344.9-552.791 947.132-648.07 360.176-56.984 783.117 47.712 1088.366 301.562 640.745 532.856 595.131 1609.319 164.311 2059.526" style="fill:url(#a)"/><g style="opacity:.92"><path d="M1176.331 450.629c4.955-13.816 25.183-11.802 27.253 2.729 20.006 140.486 84.005 507.22 229.629 716.663 237.109 341.022 356.178 859.45 144.434 1091.644-.001 0-941.211-305.684-401.316-1811.036" style="fill:#7d97f4"/><path d="M1181.496 648.028c-.062 3.541.135 7.599.24 11.463l.528 11.723 1.313 23.448a3994 3994 0 0 0 3.157 46.878c2.356 31.237 5.1 62.444 8.129 93.62a4874 4874 0 0 0 21.58 186.675c17.009 124.104 37.864 247.713 65.023 369.965 13.819 61.057 28.203 122.004 44.998 182.311 16.851 60.274 35.002 120.205 55.654 179.283 2.422 7.441 5.083 14.796 7.797 22.132l8.043 22.045 8.047 22.046c2.773 7.314 5.74 14.552 8.598 21.832 5.851 14.507 11.364 29.158 17.491 43.551l18.63 43.077c25.545 57.126 53.829 113.016 85.248 167.204l.01.016c.466.803.19 1.831-.61 2.296a1.683 1.683 0 0 1-2.274-.573c-32.915-53.472-62.056-109.202-88.707-166.072l-19.175-43.03c-6.307-14.379-12.001-29.016-18.033-43.514-2.95-7.276-6.009-14.51-8.874-21.82l-8.316-22.034-8.319-22.036c-2.803-7.334-5.556-14.689-8.066-22.127-41.828-118.459-75.17-239.782-102.06-362.406l-9.842-46.041-9.143-46.181c-3.157-15.373-5.769-30.848-8.664-46.269l-4.243-23.151-3.938-23.204c-10.61-61.855-19.946-123.931-27.648-186.207-7.768-62.266-14.548-124.653-19.729-187.181-2.55-31.267-4.814-62.555-6.688-93.869-.886-15.66-1.756-31.322-2.409-46.996l-.827-23.521-.282-11.773c-.013-3.971-.174-7.747.036-12.042a1.664 1.664 0 0 1 1.746-1.583 1.67 1.67 0 0 1 1.585 1.691z" style="opacity:.43;fill:#fff"/></g><path d="M628.277 583.592c2.763-17.002 26.534-19.004 32.03-2.68 53.138 157.827 205.437 567.311 418.275 777.837 346.551 342.784 594.846 915.527 400.182 1228.751.001 0-1151.452-151.388-850.487-2003.908" style="fill:#91b3fa"/><path d="M676.175 810.278c.676 4.167 1.756 8.787 2.691 13.235l3.075 13.428 6.445 26.801c4.397 17.847 8.989 35.648 13.625 53.435 9.382 35.55 19.201 70.982 29.348 106.32a5727 5727 0 0 0 64.698 210.856c46.058 139.624 96.603 277.807 154.055 413.111 28.981 67.524 58.667 134.77 90.968 200.774 3.902 8.317 8.004 16.533 12.162 24.721l12.385 24.612 12.385 24.612c4.191 8.172 8.578 16.239 12.861 24.364 8.667 16.191 17.094 32.517 25.961 48.599l26.906 48.078c2.251 4.001 4.433 8.043 6.744 12.011l7.01 11.855 14.023 23.711 14.022 23.713c4.772 7.844 9.75 15.56 14.613 23.347l14.679 23.312c4.959 7.728 9.628 15.646 14.866 23.188l30.756 45.709c41.789 60.414 86.456 118.827 134.414 174.549l.013.015a1.68 1.68 0 0 1-2.52 2.22c-49.304-54.745-94.781-112.845-137.61-172.805l-31.281-45.563c-5.329-7.521-10.085-15.414-15.132-23.119l-14.942-23.246c-4.952-7.765-10.022-15.462-14.882-23.285l-14.288-23.652-14.288-23.654-7.144-11.828c-2.353-3.958-4.578-7.99-6.875-11.982-73.542-127.736-137.889-260.594-195.158-396.301l-21.213-51.008-20.438-51.317c-6.931-17.06-13.258-34.353-19.9-51.524l-9.855-25.8-9.51-25.926c-25.482-69.091-49.55-138.705-71.819-208.888-22.328-70.161-43.548-140.677-62.946-211.699-9.651-35.523-18.975-71.133-27.855-106.856-4.388-17.875-8.726-35.761-12.874-53.695l-6.074-26.939-2.888-13.511c-.876-4.567-1.887-8.911-2.57-13.844a1.667 1.667 0 0 1 3.295-.5z" style="opacity:.43;fill:#fff"/><path d="M1786.529 3102.047h1116.567c55.677 0 100.813-45.135 100.813-100.813V541.4c0-55.677-45.135-100.813-100.813-100.813H1786.529c-55.677 0-100.813 45.135-100.813 100.813v2459.835c0 55.677 45.135 100.812 100.813 100.812" style="fill:#7d97f4"/><path d="M1661.999 3102.043h1116.567c55.677 0 100.813-45.135 100.813-100.813V541.396c0-55.678-45.135-100.813-100.813-100.813H1661.999c-55.677 0-100.813 45.135-100.813 100.813V3001.23c0 55.678 45.136 100.813 100.813 100.813" style="fill:#91b3fa"/><path d="M1697.16 1968.946h1055.368c48.254 0 87.371-39.117 87.371-87.371V554.309c0-48.254-39.117-87.371-87.371-87.371H1697.16c-48.254 0-87.371 39.117-87.371 87.371v1327.266c0 48.254 39.117 87.371 87.371 87.371M1694.117 3075.692h1055.368c48.254 0 87.371-39.117 87.371-87.371v-915.534c0-48.254-39.117-87.371-87.371-87.371H1694.117c-48.254 0-87.371 39.117-87.371 87.371v915.534c0 48.254 39.117 87.371 87.371 87.371" style="fill:#bdd0fb"/><path d="M1719.276 1600.031c21.83 0 39.527-17.697 39.527-39.527V928.078c0-21.83-17.697-39.527-39.527-39.527s-39.527 17.697-39.527 39.527v632.426c0 21.83 17.697 39.527 39.527 39.527M1712.715 2548.67c21.83 0 39.527-17.697 39.527-39.527v-385.385c0-21.83-17.697-39.527-39.527-39.527s-39.527 17.697-39.527 39.527v385.385c.001 21.83 17.697 39.527 39.527 39.527" style="fill:#7d97f4"/><linearGradient id="b" x1="500.619" x2="1587.039" y1="3700.127" y2="1466.258" gradientUnits="userSpaceOnUse"><stop offset="0" style="stop-color:#4f52ff"/><stop offset="1" style="stop-color:#4042e2"/></linearGradient><path d="m539.966 1840.595 86.594 1279.78c1.763 26.059 23.416 46.296 49.535 46.296h925.222c25.777 0 47.266-19.727 49.467-45.41l109.723-1280.73c2.378-27.753-18.531-52.003-46.328-53.793-343.796-22.138-723.672-18.895-1127.083.904-27.752 1.364-49.006 25.231-47.13 52.953" style="fill:url(#b)"/><linearGradient id="c" x1="1142.523" x2="1138.042" y1="2003.416" y2="1385.096" gradientUnits="userSpaceOnUse"><stop offset="0" style="stop-color:#4f52ff"/><stop offset="1" style="stop-color:#4042e2"/></linearGradient><path d="M701.673 2048.659h883.496c46.013 0 82.229 39.272 78.51 85.134l-64.355 793.649c-3.306 40.765-37.261 72.219-78.16 72.4l-751.216 3.335c-41.043.182-75.347-31.183-78.833-72.078l-67.925-796.983c-3.919-45.975 32.342-85.457 78.483-85.457" style="fill:url(#c)"/><path d="M1682.671 2007.283H594.025a9.91 9.91 0 0 1-9.318-6.542c-2.333-6.458 2.452-13.273 9.318-13.273h1088.646c7.999 0 12.7 8.99 8.137 15.559a9.9 9.9 0 0 1-8.137 4.256M603.099 1841.155l7.93 108.866a10.097 10.097 0 0 0 10.07 9.363h234.117c5.453 0 9.921-4.33 10.092-9.78l3.594-114.536c.182-5.789-4.534-10.544-10.325-10.411l-245.641 5.67c-5.771.134-10.256 5.071-9.837 10.828M1333.353 1878.262l4.211 71.759a10.096 10.096 0 0 0 10.07 9.363h299.258c5.453 0 9.921-4.33 10.092-9.78l7.313-77.429c.182-5.789-4.534-10.544-10.325-10.411l-310.783 5.67c-5.77.134-10.256 5.071-9.836 10.828" style="fill:#7d97f4"/><circle cx="1006.897" cy="1893.06" r="66.325" style="fill:#7d97f4" transform="rotate(-76.714 1007.024 1893.17)"/><circle cx="1013.75" cy="1886.207" r="47.112" style="fill:#bdd0fb"/><circle cx="1196.531" cy="1893.06" r="66.325" style="fill:#7d97f4" transform="rotate(-45.001 1196.514 1893.083)"/><circle cx="1203.384" cy="1886.207" r="47.112" style="fill:#bdd0fb"/><linearGradient id="d" x1="1267.725" x2="1395.646" y1="2479.811" y2="1662.419" gradientUnits="userSpaceOnUse"><stop offset="0" style="stop-color:#4f52ff"/><stop offset="1" style="stop-color:#4042e2"/></linearGradient><path d="M1399.994 1849.359h-62.512a4.155 4.155 0 0 1-4.155-4.155v-21.683a4.156 4.156 0 0 1 4.156-4.156h62.512a4.155 4.155 0 0 1 4.155 4.155v21.683a4.157 4.157 0 0 1-4.156 4.156" style="fill:url(#d)"/><linearGradient id="e" x1="1351.372" x2="1479.293" y1="2493.786" y2="1676.393" gradientUnits="userSpaceOnUse"><stop offset="0" style="stop-color:#4f52ff"/><stop offset="1" style="stop-color:#4042e2"/></linearGradient><path d="M1485.828 1849.359h-62.513a4.156 4.156 0 0 1-4.156-4.155v-21.683a4.156 4.156 0 0 1 4.156-4.156h62.513a4.155 4.155 0 0 1 4.155 4.155v21.683a4.155 4.155 0 0 1-4.155 4.156" style="fill:url(#e)"/><linearGradient id="f" x1="1437.603" x2="1565.525" y1="2508.188" y2="1690.796" gradientUnits="userSpaceOnUse"><stop offset="0" style="stop-color:#4f52ff"/><stop offset="1" style="stop-color:#4042e2"/></linearGradient><path d="M1574.313 1849.359h-62.512a4.155 4.155 0 0 1-4.155-4.155v-21.683a4.156 4.156 0 0 1 4.156-4.156h62.512a4.155 4.155 0 0 1 4.155 4.155v21.683a4.156 4.156 0 0 1-4.156 4.156" style="fill:url(#f)"/><linearGradient id="g" x1="1521.251" x2="1649.172" y1="2522.163" y2="1704.771" gradientUnits="userSpaceOnUse"><stop offset="0" style="stop-color:#4f52ff"/><stop offset="1" style="stop-color:#4042e2"/></linearGradient><path d="M1660.147 1849.359h-62.512a4.155 4.155 0 0 1-4.155-4.155v-21.683a4.156 4.156 0 0 1 4.156-4.156h62.512a4.155 4.155 0 0 1 4.155 4.155v21.683a4.156 4.156 0 0 1-4.156 4.156" style="fill:url(#g)"/><path d="M1604.847 3042.009H673.572a6.153 6.153 0 0 1-6.153-6.153c0-3.398 2.755-6.153 15.667-6.153h931.275c-6.116 0-3.361 2.755-3.361 6.153a6.153 6.153 0 0 1-6.153 6.153" style="opacity:.5;fill:#fff"/><circle cx="1139.169" cy="2515.228" r="359.645" style="fill:#7d97f4"/><linearGradient id="h" x1="1505.997" x2="932.435" y1="2303.019" y2="2632.44" gradientUnits="userSpaceOnUse"><stop offset="0" style="stop-color:#09005d"/><stop offset="1" style="stop-color:#1a0f91"/></linearGradient><circle cx="1142.749" cy="2511.647" r="292.371" style="fill:url(#h)"/><linearGradient id="i" x1="1602.25" x2="1499.197" y1="1742.483" y2="1914.985" gradientUnits="userSpaceOnUse"><stop offset="0" style="stop-color:#4f52ff"/><stop offset="1" style="stop-color:#4042e2"/></linearGradient><circle cx="1142.749" cy="2511.647" r="275.513" style="fill:url(#i)"/><linearGradient id="j" x1="1519.362" x2="713.748" y1="1882.006" y2="3722.106" gradientUnits="userSpaceOnUse"><stop offset="0" style="stop-color:#09005d"/><stop offset="1" style="stop-color:#1a0f91"/></linearGradient><path d="M1249.532 2282.321c-21.943-12.411-49.978-9.727-67.65 8.252-28.088 28.575-58.362 79.112-25.61 149.165 49.311 105.468 39.623 274.349-62.553 319.097 0 0 247.608 28.325 295.34-210.209 31.106-155.451-84.858-235.385-139.527-266.305" style="opacity:.57;fill:url(#j)"/><path d="M1097.633 2302.338c-7.663.18-15.181 1.967-22.194 4.978-7.039 2.944-13.671 6.896-19.89 11.444-6.232 4.54-12.132 9.576-17.773 14.964a287 287 0 0 0-16.445 16.578c-21.144 22.792-38.766 48.746-51.443 76.818-12.526 28.076-20.202 58.388-20.632 88.847-.459 30.438 5.484 61.098 18.282 88.605 12.661 27.505 32.147 51.85 57.308 68.557 24.967 16.961 54.715 26.8 84.907 29.04 15.119 1.073 30.326.136 45.254-2.596 14.896-2.901 29.525-7.423 43.4-13.716 27.746-12.528 52.848-31.314 72.492-54.586 19.585-23.198 33.932-51.332 38.067-81.11 2.166-14.845 1.441-29.955-1.946-44.452-1.913-7.197-4.132-14.37-7.377-21.138-1.414-3.475-3.36-6.699-5.067-10.039-1.979-3.187-3.81-6.481-6.032-9.515-17.019-24.85-43.062-43.438-72.298-50.875-29.309-7.315-61.203-4.511-89.196 7.474-6.987 3.006-13.806 6.457-20.195 10.588-6.494 3.973-12.539 8.646-18.2 13.706-11.312 10.129-20.743 22.369-26.936 36.063-6.343 13.648-8.733 28.862-6.708 43.737 1.943 14.813 8.483 29.133 19.152 39.425 10.698 10.229 25.682 15.596 40.712 15.612 15.017-.01 30.221-4.965 41.868-14.594 5.789-4.786 10.675-10.71 13.494-17.526 2.885-6.732 3.259-14.492.991-21.443-2.205-6.939-7.525-12.859-14.626-14.521-6.921-1.836-15.171.033-19.47 5.822a1.68 1.68 0 0 1-2.35.365 1.69 1.69 0 0 1-.371-2.337c2.553-3.544 6.33-6.105 10.446-7.328 4.105-1.232 8.516-1.383 12.684-.391 4.178.901 8.171 3.093 11.253 6.107 3.065 3.034 5.359 6.77 6.783 10.775 2.858 7.992 2.632 17.007-.486 24.883-3.062 7.892-8.441 14.579-14.676 19.951-12.556 10.79-29.01 16.528-45.497 16.861-16.461.318-33.447-5.265-45.904-16.715-12.362-11.46-19.907-27.353-22.391-43.717-2.599-16.384-.203-33.634 6.491-48.756 6.586-15.217 16.76-28.595 28.797-39.662 6.035-5.529 12.477-10.623 19.395-14.98 6.819-4.517 14.088-8.313 21.554-11.628 29.893-13.2 64.101-16.725 96.209-9.128 32.147 7.763 61 27.833 79.981 54.863 2.474 3.311 4.552 6.903 6.76 10.396 1.943 3.655 4.109 7.198 5.736 11.02 3.662 7.448 6.258 15.388 8.473 23.403 4.04 16.184 4.981 33.15 2.606 49.561-2.107 16.478-7.361 32.316-14.282 47.191-7.157 14.774-16.044 28.664-26.598 41.154-21 25.057-47.63 45.148-77.352 58.726-14.853 6.805-30.569 11.747-46.642 14.937-16.103 3.022-32.653 4.105-49.035 3.004-32.735-2.302-65.007-12.799-92.405-31.237-27.609-18.221-49.304-44.9-62.897-74.729-13.596-29.901-20.025-62.823-18.952-95.474 1.073-32.736 9.704-64.818 23.881-93.879 14.078-29.152 33.562-55.364 56.396-77.831a296 296 0 0 1 17.842-16.066c6.078-5.178 12.5-10.07 19.29-14.453 6.783-4.376 14.023-8.219 21.744-10.879 7.722-2.645 15.955-3.952 24.097-3.517a1.68 1.68 0 0 1-.046 3.359z" style="opacity:.53;fill:#fff"/><linearGradient id="k" x1="1221.988" x2="3247.098" y1="3026.671" y2="2072.534" gradientUnits="userSpaceOnUse"><stop offset="0" style="stop-color:#09005d"/><stop offset="1" style="stop-color:#1a0f91"/></linearGradient><path d="M2137.452 3213.567H1005.581v-688.696c0-12.585 10.202-22.787 22.787-22.787h1087.54c11.898 0 21.544 9.646 21.544 21.544z" style="fill:url(#k)"/><linearGradient id="l" x1="1776.986" x2="1076.13" y1="2247.871" y2="3582.832" gradientUnits="userSpaceOnUse"><stop offset="0" style="stop-color:#ff928e"/><stop offset="1" style="stop-color:#fe7062"/></linearGradient><path d="M1849.981 3158.313h-802.367a8.673 8.673 0 0 1-8.673-8.673v-553.3a8.673 8.673 0 0 1 8.673-8.673h802.367a8.673 8.673 0 0 1 8.673 8.673v553.301a8.673 8.673 0 0 1-8.673 8.672" style="fill:url(#l)"/><linearGradient id="m" x1="1548.707" x2="2289.125" y1="1984.551" y2="3380.501" gradientUnits="userSpaceOnUse"><stop offset="0" style="stop-color:#09005d"/><stop offset="1" style="stop-color:#1a0f91"/></linearGradient><path d="M2137.452 3213.567H1896.78v-711.484h214.451c14.481 0 26.22 11.74 26.22 26.221v685.263z" style="fill:url(#m)"/><linearGradient id="n" x1="1594.378" x2="1937.461" y1="2420.914" y2="3067.746" gradientUnits="userSpaceOnUse"><stop offset="0" style="stop-color:#e1473d"/><stop offset="1" style="stop-color:#e9605a"/></linearGradient><path d="M1853.336 3072.529h-25.107c-2.925 0-5.318-2.393-5.318-5.318v-363.477c0-2.925 2.393-5.318 5.318-5.318h25.107c2.925 0 5.318 2.393 5.318 5.318v363.477c0 2.925-2.393 5.318-5.318 5.318" style="fill:url(#n)"/><linearGradient id="o" x1="2191.499" x2="1488.826" y1="2820.851" y2="2061.366" gradientUnits="userSpaceOnUse"><stop offset="0" style="stop-color:#4f52ff"/><stop offset="1" style="stop-color:#4042e2"/></linearGradient><path d="M2094.941 2676.97h-172.329a9.15 9.15 0 0 1-9.151-9.151v-88.928a9.15 9.15 0 0 1 9.151-9.151h172.329a9.15 9.15 0 0 1 9.151 9.151v88.928a9.15 9.15 0 0 1-9.151 9.151" style="opacity:.43;fill:url(#o)"/><linearGradient id="p" x1="2447.631" x2="1841.609" y1="3621.176" y2="2919.922" gradientUnits="userSpaceOnUse"><stop offset="0" style="stop-color:#4f52ff"/><stop offset="1" style="stop-color:#4042e2"/></linearGradient><circle cx="2007.704" cy="3112.118" r="71.036" style="opacity:.47;fill:url(#p)"/><linearGradient id="q" x1="2338.015" x2="1855.46" y1="3493.094" y2="2934.709" gradientUnits="userSpaceOnUse"><stop offset="0" style="stop-color:#4f52ff"/><stop offset="1" style="stop-color:#4042e2"/></linearGradient><circle cx="2008.776" cy="3112.118" r="56.564" style="opacity:.43;fill:url(#q)"/><g style="opacity:.43"><linearGradient id="r" x1="1856.189" x2="2175.568" y1="2467.923" y2="3250.98" gradientUnits="userSpaceOnUse"><stop offset="0" style="stop-color:#4f52ff"/><stop offset="1" style="stop-color:#4042e2"/></linearGradient><circle cx="1973.155" cy="2754.703" r="20.998" style="fill:url(#r)"/><linearGradient id="s" x1="1912.267" x2="2231.646" y1="2445.05" y2="3228.108" gradientUnits="userSpaceOnUse"><stop offset="0" style="stop-color:#4f52ff"/><stop offset="1" style="stop-color:#4042e2"/></linearGradient><circle cx="2038.562" cy="2754.703" r="20.998" style="fill:url(#s)"/><linearGradient id="t" x1="1830.774" x2="2150.153" y1="2478.289" y2="3261.345" gradientUnits="userSpaceOnUse"><stop offset="0" style="stop-color:#4f52ff"/><stop offset="1" style="stop-color:#4042e2"/></linearGradient><circle cx="1973.155" cy="2827.381" r="20.998" style="fill:url(#t)"/><linearGradient id="u" x1="1886.852" x2="2206.232" y1="2455.416" y2="3238.473" gradientUnits="userSpaceOnUse"><stop offset="0" style="stop-color:#4f52ff"/><stop offset="1" style="stop-color:#4042e2"/></linearGradient><circle cx="2038.562" cy="2827.381" r="20.998" style="fill:url(#u)"/><linearGradient id="v" x1="1804.713" x2="2124.093" y1="2488.916" y2="3271.973" gradientUnits="userSpaceOnUse"><stop offset="0" style="stop-color:#4f52ff"/><stop offset="1" style="stop-color:#4042e2"/></linearGradient><circle cx="1974.347" cy="2904.825" r="20.998" style="fill:url(#v)"/><linearGradient id="w" x1="1860.792" x2="2180.171" y1="2466.045" y2="3249.102" gradientUnits="userSpaceOnUse"><stop offset="0" style="stop-color:#4f52ff"/><stop offset="1" style="stop-color:#4042e2"/></linearGradient><circle cx="2039.754" cy="2904.825" r="20.998" style="fill:url(#w)"/><linearGradient id="x" x1="1781.477" x2="2100.857" y1="2498.393" y2="3281.45" gradientUnits="userSpaceOnUse"><stop offset="0" style="stop-color:#4f52ff"/><stop offset="1" style="stop-color:#4042e2"/></linearGradient><circle cx="1977.86" cy="2979.886" r="20.998" style="fill:url(#x)"/><linearGradient id="y" x1="1837.556" x2="2156.936" y1="2475.522" y2="3258.579" gradientUnits="userSpaceOnUse"><stop offset="0" style="stop-color:#4f52ff"/><stop offset="1" style="stop-color:#4042e2"/></linearGradient><circle cx="2043.267" cy="2979.886" r="20.998" style="fill:url(#y)"/></g><defs><path id="z" d="M1038.941 2587.667h819.713v570.646h-819.713z"/></defs><clipPath id="A"><use xlink:href="#z" style="overflow:visible"/></clipPath><path d="M1159.29 2217.686h37.529v1074.033h-37.529z" style="opacity:.06;clip-path:url(#A);fill:#fff" transform="rotate(30 1178.17 2754.614)"/><path d="M1537.26 2348.456h37.529v1074.033h-37.529z" style="opacity:.11;clip-path:url(#A);fill:#fff" transform="rotate(30 1556.14 2885.356)"/><path d="M1285.396 2319.699h102.461v1074.033h-102.461z" style="opacity:.14;clip-path:url(#A);fill:#fff" transform="rotate(30 1336.746 2856.617)"/><linearGradient id="B" x1="-3252.446" x2="-3326.971" y1="1497.181" y2="2226.903" gradientTransform="matrix(-1 0 0 1 -240.014 0)" gradientUnits="userSpaceOnUse"><stop offset="0" style="stop-color:#febbba"/><stop offset="1" style="stop-color:#ff928e"/></linearGradient><path d="M3058.69 2068.441c12.251-32.572 17.539-71.313 9.48-116.49 49.467-8.609 95.62-26.25 136.116-54.329 4.814 69.532-13.649 146.313-77.675 222.468-31.083 36.97-72.893 73.794-127.998 109.566l-16.231 34.65-48.764-60.74c-.001.001 90.366-42.861 125.072-135.125" style="fill:url(#B)"/><linearGradient id="C" x1="-2680.807" x2="-2761.644" y1="1785.531" y2="2577.054" gradientTransform="matrix(-1 0 0 1 -240.014 0)" gradientUnits="userSpaceOnUse"><stop offset="0" style="stop-color:#febbba"/><stop offset="1" style="stop-color:#ff928e"/></linearGradient><path d="M2372.644 1765.874c49.991 8.755 93.751 2.216 132.415-12.126 1.019 8.588 2.468 17.221 4.473 25.91 8.448 38.016 20.083 74.835 36.397 108.777-74.908 11.075-142.558-10.658-192.991-36.592-.7-35.177 8.906-64.424 19.706-85.969" style="fill:url(#C)"/><linearGradient id="D" x1="6535.77" x2="6240.052" y1="-12861.987" y2="-12404.968" gradientTransform="matrix(-1 0 0 1 -240.014 0)" gradientUnits="userSpaceOnUse"><stop offset="0" style="stop-color:#ff928e"/><stop offset="1" style="stop-color:#fe7062"/></linearGradient><path d="M2505.059 1753.748c64.946-24.09 115.51-70.204 157.045-102.888 87.486-68.841 153.883-33.293 153.883-33.293l-95.317 180.258c-59.537 56.099-119.138 82.389-174.741 90.61-16.314-33.942-27.949-70.761-36.397-108.777-2.005-8.688-3.455-17.321-4.473-25.91" style="fill:url(#D)"/><linearGradient id="E" x1="-3419.159" x2="-4049.159" y1="1372.385" y2="2178.415" gradientTransform="scale(-1 1)rotate(-1.083 540.217 -71095.963)" gradientUnits="userSpaceOnUse"><stop offset="0" style="stop-color:#febbba"/><stop offset="1" style="stop-color:#ff928e"/></linearGradient><path d="m2185.373 1679.115 44.087 25.726c52.798 34.776 100.279 53.521 143.184 61.033-10.8 21.545-20.406 50.792-19.705 85.969-55.935-28.762-90.703-62.674-90.703-62.674-99.757-64.372-76.863-110.054-76.863-110.054" style="fill:url(#E)"/><linearGradient id="F" x1="9507.564" x2="9279.055" y1="-13430.184" y2="-13134.467" gradientTransform="matrix(-1 0 0 1 -240.014 0)" gradientUnits="userSpaceOnUse"><stop offset="0" style="stop-color:#4f52ff"/><stop offset="1" style="stop-color:#4042e2"/></linearGradient><path d="M2685.07 2926.169 2325.3 1415.53l-153.986 29.718 228.224 1536.028a240 240 0 0 0 1.75 10.245l9.917 51.384c17.017 88.173 79.005 150.349 138.457 138.876l70.679-13.641c59.453-11.474 93.852-92.252 76.834-180.426l-9.917-51.384a242 242 0 0 0-2.188-10.161m-118.377 153.917c-39.446 7.614-81.809-40.031-94.621-106.415s8.779-126.371 48.225-133.984c39.445-7.612 81.807 40.032 94.618 106.416 12.812 66.384-8.777 126.37-48.222 133.983" style="fill:url(#F)"/><linearGradient id="G" x1="9089.517" x2="8861.008" y1="-13753.279" y2="-13457.561" gradientTransform="matrix(-1 0 0 1 -240.014 0)" gradientUnits="userSpaceOnUse"><stop offset="0" style="stop-color:#4f52ff"/><stop offset="1" style="stop-color:#4042e2"/></linearGradient><path d="m2302.469 879.961 57.542 298.151a69.68 69.68 0 0 1-16.21 59.355l-73.396 83.038c-20.95 23.702-55.237 30.319-83.504 16.116l-99.024-49.763a69.69 69.69 0 0 1-37.134-49.061l-57.542-298.15c-8.679-44.971-66.656-59.467-94.633-23.203-66.929 86.753-97.651 202.779-74.756 321.406 41.381 214.413 237.035 329.643 443.271 289.84s344.958-219.566 303.578-433.978c-22.895-118.628-94.586-214.889-188.991-270.506-39.461-23.245-87.879 11.783-79.201 56.755" style="fill:url(#G)"/><linearGradient id="H" x1="-2509.052" x2="-3940.038" y1="1409.737" y2="4831.189" gradientTransform="matrix(-1 0 0 1 -240.014 0)" gradientUnits="userSpaceOnUse"><stop offset="0" style="stop-color:#4f52ff"/><stop offset="1" style="stop-color:#4042e2"/></linearGradient><path d="m2274.372 885.384 57.541 298.15a69.68 69.68 0 0 1-16.209 59.355l-73.398 83.039c-20.949 23.703-55.236 30.32-83.501 16.115l-99.025-49.762a69.69 69.69 0 0 1-37.134-49.059l-57.542-298.151c-8.679-44.972-66.655-59.467-94.633-23.205-66.929 86.754-97.65 202.779-74.756 321.408 41.381 214.413 237.035 329.642 443.271 289.84s344.958-219.566 303.578-433.979c-22.895-118.628-94.587-214.888-188.993-270.504-39.463-23.248-87.881 11.781-79.199 56.753" style="fill:url(#H)"/><linearGradient id="I" x1="1886.037" x2="205.822" y1="2268.263" y2="2154.009" gradientUnits="userSpaceOnUse"><stop offset="0" style="stop-color:#4f52ff"/><stop offset="1" style="stop-color:#4042e2"/></linearGradient><path d="m2662.655 2930.495-359.77-1510.64-153.984 29.718L2377.124 2985.6a240 240 0 0 0 1.75 10.245l9.917 51.384c17.017 88.174 79.005 150.349 138.458 138.876l70.679-13.641c59.451-11.473 93.85-92.252 76.833-180.426l-9.917-51.384a243 243 0 0 0-2.189-10.159m-118.377 153.917c-39.445 7.612-81.807-40.031-94.62-106.415-12.812-66.386 8.78-126.371 48.224-133.985 39.446-7.613 81.808 40.032 94.619 106.416 12.812 66.385-8.777 126.371-48.223 133.984" style="fill:url(#I)"/><linearGradient id="J" x1="2488.39" x2="3325.095" y1="1619.107" y2="1155.389" gradientUnits="userSpaceOnUse"><stop offset="0" style="stop-color:#febbba"/><stop offset="1" style="stop-color:#ff928e"/></linearGradient><path d="M2179.625 1745.61c-1.64-9.632 1.177-19.41 7.566-26.801 12.382-14.323 33.775-33.948 49.291-20.721 23.108 19.7-2.213 87.074-2.213 87.074l-25.62 39.127-.361 24.972c-13.861-16.23-22.15-56.156-28.663-103.651" style="fill:url(#J)"/><path d="M2770.268 3197.556c.003-1.069.094-2.151.389-3.236 17.371-63.762 98.331-102.155 98.331-102.155l31.738 3.092c17.209 56.814 14.206 91.404 10.979 106.774-.088.431-.228.839-.351 1.256-26.263 1.847-80.257 2.359-141.086-5.731" style="fill:#7d97f4"/><path d="M2911.354 3203.287c-1.512 5.125-5.391 9.063-10.279 9.996-37.444 7.138-96.603-.292-121.43-4.017-5.478-.821-9.395-5.975-9.378-11.71 60.83 8.09 114.824 7.578 141.087 5.731" style="fill:#91b3fa"/><linearGradient id="K" x1="-3509.726" x2="-3537.139" y1="2907.317" y2="3146.561" gradientTransform="scale(-1 1)rotate(-1.083 923.234 -30476.904)" gradientUnits="userSpaceOnUse"><stop offset="0" style="stop-color:#febbba"/><stop offset="1" style="stop-color:#ff928e"/></linearGradient><path d="m2914.4 3048.159-14.685 64.549c-1.076 4.729-4.793 8.217-9.219 8.548-5.42.406-13.125.558-20.849-.726-6.926-1.151-11.628-8.3-10.254-15.85l10.443-57.363z" style="fill:url(#K)"/><path d="M2632.572 3197.373c35.121-.321 53.355-4.112 62.813-7.771-.043 3.491-.13 7.043-.313 10.722-.195 3.928-3.165 7.013-6.747 6.922l-192.712-4.884c-6.15-.156-9.61-7.357-6.838-12.946 25.232 2.563 89.505 8.451 143.797 7.957" style="fill:#91b3fa"/><path d="M2488.775 3189.415c.242-.487.451-.983.791-1.439 17.469-23.461 61.717-70.002 147.769-88.925l41.121-.522s17.698 32.152 16.929 91.073c-9.458 3.66-27.692 7.45-62.813 7.771-54.292.494-118.565-5.394-143.797-7.958" style="fill:#7d97f4"/><linearGradient id="L" x1="-3286.426" x2="-3313.839" y1="2932.909" y2="3172.149" gradientTransform="scale(-1 1)rotate(-1.083 923.234 -30476.904)" gradientUnits="userSpaceOnUse"><stop offset="0" style="stop-color:#febbba"/><stop offset="1" style="stop-color:#ff928e"/></linearGradient><path d="M2687.25 3036.392c-.514 3.055-7.027 49.506-9.548 67.516-.598 4.278-3.768 7.541-7.694 7.934-7.014.705-18.352 1.252-28.22-.966-5.323-1.198-9.096-6.404-8.983-12.375l1.38-73.081z" style="fill:url(#L)"/><linearGradient id="M" x1="-3061.159" x2="-3613.578" y1="1365.843" y2="3216.807" gradientTransform="scale(-1 1)rotate(-1.083 923.234 -30476.904)" gradientUnits="userSpaceOnUse"><stop offset="0" style="stop-color:#09005d"/><stop offset="1" style="stop-color:#1a0f91"/></linearGradient><path d="M2740.004 2161.604s-114.237 474.227-121.396 948.287c-.129 8.643 65.977 16.268 67.49 8.309 15.437-81.242 117.201-610.396 164.05-684.079 0 0-1.057 466.36-14.62 678.34-.337 5.271 59.621 22.541 72.142 9.085.001.004 84.495-516.136 87.959-840.037.178-16.682-29.93-119.905-29.93-119.905z" style="fill:url(#M)"/><linearGradient id="N" x1="-2896.45" x2="-2898.226" y1="1656.059" y2="1673.452" gradientTransform="matrix(-1 0 0 1 -240.014 0)" gradientUnits="userSpaceOnUse"><stop offset="0" style="stop-color:#ff928e"/><stop offset="1" style="stop-color:#fe7062"/></linearGradient><path d="M2655.492 1657.132c7.068-9.055-1.84 18.399 0 0" style="fill:url(#N)"/><linearGradient id="O" x1="6436.66" x2="6140.943" y1="-12926.075" y2="-12469.057" gradientTransform="matrix(-1 0 0 1 -240.014 0)" gradientUnits="userSpaceOnUse"><stop offset="0" style="stop-color:#ff928e"/><stop offset="1" style="stop-color:#fe7062"/></linearGradient><path d="M2655.492 1657.132c.171-1.712.433-3.809.812-6.382 124.973-86.644 309.781-38.104 381.424-27.702 23.491 3.411 44.808 15.426 59.987 33.678 36.499 43.887 99.155 133.789 106.57 240.896-40.495 28.079-86.648 45.72-136.116 54.329-4.124-23.115-11.732-47.912-23.709-74.44a182 182 0 0 1-5.052 18.162c-53.831 159.955-81.912 251.294-82.38 282.157-.063 4.191-246.583-6.021-202.922-7.298 18.244-.533-84.992-364.703-138.933-429.334-3.204-3.838 47.387-93.121 40.319-84.066" style="fill:url(#O)"/><linearGradient id="P" x1="-3449.133" x2="-3553.8" y1="1377.91" y2="1830.223" gradientTransform="scale(-1 1)rotate(-1.083 923.234 -30476.904)" gradientUnits="userSpaceOnUse"><stop offset="0" style="stop-color:#febbba"/><stop offset="1" style="stop-color:#ff928e"/></linearGradient><path d="m2924.629 1491.537 10.398 131.873s-74.47 20.905-127.61-18.113l40.119-118.917z" style="fill:url(#P)"/><linearGradient id="Q" x1="-3131.184" x2="-3050.697" y1="1507.705" y2="1378.031" gradientTransform="matrix(-1 0 0 1 -240.014 0)" gradientUnits="userSpaceOnUse"><stop offset="0" style="stop-color:#febbba"/><stop offset="1" style="stop-color:#ff928e"/></linearGradient><path d="M2841.539 1339.888c-1.814 1.644-77.97 144.463-77.97 144.463l82.471 41.75 92.291-124.639c.001.001-66.425-89.097-96.792-61.574" style="fill:url(#Q)"/><linearGradient id="R" x1="-3069.602" x2="-3116.235" y1="998.635" y2="1633.561" gradientTransform="matrix(-1 0 0 1 -240.014 0)" gradientUnits="userSpaceOnUse"><stop offset="0" style="stop-color:#4f52ff"/><stop offset="1" style="stop-color:#4042e2"/></linearGradient><path d="M2869.264 1370.463c18.499 2.712 28.285 23.145 32.177 33.802a13.3 13.3 0 0 1-1.22 11.641l-42.817 68.414a13 13 0 0 1-2.33 2.79c-5.028 4.506-22.188 17.564-34.914-.896-10.848-15.734-21.033-30.044-32.123-36.077-6.476-3.524-14.576-.961-18.021 5.558-7.095 13.427-20.864 40.809-29.682 66.853-2.209 6.528 1.047 13.643 7.384 16.351 16.724 7.147 49.799 20.123 79.28 24.76a13.28 13.28 0 0 0 12.653-5.1c13.045-17.18 49.805-65.188 62.268-77.143 11.579-11.108 32.473-6.443 41.873-3.548a13.34 13.34 0 0 0 10.631-1.191c9.699-5.595 26.705-19.663 11.856-44.302-3.691-6.126-1.599-14.155 4.451-17.973 10.839-6.841 22.706-19.84 12.041-41.459-13.471-27.302-51.656-24.73-73.083-44.843-10.562-9.914-20.942-20.947-34.661-25.596-2.944-.998-6.028-1.681-9.135-1.619-13.481.272-33.892 22.489-34.81 35.908-1.312 19.162 22.072 31.308 38.182 33.67" style="fill:url(#R)"/><linearGradient id="S" x1="-3553.206" x2="-3404.263" y1="-3332.842" y2="-3485.653" gradientTransform="scale(-1 1)rotate(-47.813 2448.177 -1548.84)" gradientUnits="userSpaceOnUse"><stop offset="0" style="stop-color:#febbba"/><stop offset="1" style="stop-color:#ff928e"/></linearGradient><path d="M2885.849 1506.534s16.851-46.422 37.259-44.321 36.111 22.767 10.347 45.18c-32.049 27.879-47.606-.859-47.606-.859" style="fill:url(#S)"/><linearGradient id="T" x1="3044.455" x2="3072.719" y1="1783.934" y2="1783.934" gradientUnits="userSpaceOnUse"><stop offset="0" style="stop-color:#e1473d"/><stop offset="1" style="stop-color:#e9605a"/></linearGradient><path d="M3051.43 1865.604c28.334-73.226 20.241-162.448 20.156-163.34l-7.44.707c.082.876 7.999 88.386-19.691 159.933z" style="fill:url(#T)"/><linearGradient id="U" x1="-2397.052" x2="-3057.089" y1="1453.791" y2="2293.187" gradientTransform="matrix(-1 0 0 1 -240.014 0)" gradientUnits="userSpaceOnUse"><stop offset="0" style="stop-color:#09005d"/><stop offset="1" style="stop-color:#1a0f91"/></linearGradient><path d="M2853.973 2424.587a3.736 3.736 0 0 0 3.667-2.731c8.817-31.547 71.026-65.224 71.652-65.561a3.737 3.737 0 0 0 1.527-5.061 3.734 3.734 0 0 0-5.061-1.528c-2.674 1.435-65.646 35.527-75.318 70.136a3.737 3.737 0 0 0 2.594 4.605c.312.09.63.134.939.14" style="fill:url(#U)"/><linearGradient id="V" x1="-2960.956" x2="-3513.376" y1="1493.425" y2="3344.394" gradientTransform="matrix(-1 0 0 1 -240.014 0)" gradientUnits="userSpaceOnUse"><stop offset="0" style="stop-color:#09005d"/><stop offset="1" style="stop-color:#1a0f91"/></linearGradient><path d="m3031.364 1924.095-91.978-138.574a3.55 3.55 0 0 0-2.96-1.588h-168.398a7.81 7.81 0 0 0-6.726 3.838l-80.035 135.443a11.34 11.34 0 0 0-1.392 7.807c31.684 96.204 62.334 190.876 60.13 236.945 57.396 44.839 158.374 35.47 227.31 14.844 3.547-60.109 33.12-154.716 65.241-252.699a8.06 8.06 0 0 0-1.192-6.016" style="fill:url(#V)"/><linearGradient id="W" x1="-3113.476" x2="-3665.897" y1="1447.905" y2="3298.876" gradientTransform="matrix(-1 0 0 1 -240.014 0)" gradientUnits="userSpaceOnUse"><stop offset="0" style="stop-color:#09005d"/><stop offset="1" style="stop-color:#1a0f91"/></linearGradient><path d="m3000.149 1618.155-61.818 177.645h-37.203l54.971-184.987a3.657 3.657 0 0 1 4.243-2.54l38.729 7.983a1.452 1.452 0 0 1 1.078 1.899" style="fill:url(#W)"/><linearGradient id="X" x1="-2957.422" x2="-3509.839" y1="1494.48" y2="3345.44" gradientTransform="matrix(-1 0 0 1 -240.014 0)" gradientUnits="userSpaceOnUse"><stop offset="0" style="stop-color:#09005d"/><stop offset="1" style="stop-color:#1a0f91"/></linearGradient><path d="m2788.412 1605.66 15.176 185.23-34.332 4.213-29.222-184.673a2.34 2.34 0 0 1 2.099-2.697l43.968-4.017a2.126 2.126 0 0 1 2.311 1.944" style="fill:url(#X)"/><linearGradient id="Y" x1="5253.011" x2="4683.838" y1="1250.252" y2="1879.976" gradientTransform="translate(-2237.67)" gradientUnits="userSpaceOnUse"><stop offset="0" style="stop-color:#09005d"/><stop offset="1" style="stop-color:#1a0f91"/></linearGradient><path d="M2794.431 1349.036c73.402-138.648 263.648-12.691 175.109 104.106-65.83-43.771-140.216-108.839-175.109-104.106" style="fill:url(#Y)"/><linearGradient id="Z" x1="4291.601" x2="4477.269" y1="810.088" y2="810.088" gradientTransform="rotate(9.803 354.546 -8027.042)" gradientUnits="userSpaceOnUse"><stop offset="0" style="stop-color:#09005d"/><stop offset="1" style="stop-color:#1a0f91"/></linearGradient><path d="M2799.229 1334.091c-148.396-7.553-26.241 47.466 108.904 76.832-33.641-35.71-67.273-62.326-108.904-76.832" style="fill:url(#Z)"/></svg>
